<?xml version="1.0" encoding="utf-8"?>
<!-- Generator: Adobe Illustrator 26.0.3, SVG Export Plug-In . SVG Version: 6.00 Build 0)  -->
<svg version="1.1" id="圖層_1" xmlns="http://www.w3.org/2000/svg" xmlns:xlink="http://www.w3.org/1999/xlink" x="0px" y="0px"
	 viewBox="0 0 160 141" style="enable-background:new 0 0 160 141;" xml:space="preserve">
<style type="text/css">
	.st0{fill:#41AFFF;}
</style>
<g>
	<path class="st0" d="M160,72.1c0-23.9-16.9-44.1-40-50.7c0-0.1,0-0.1,0-0.2V7.7c0-4.2-3.4-7.7-7.7-7.7c-4.2,0-7.7,3.4-7.7,7.7v11.4
		c-0.4,0-0.8,0-1.1,0h-47c-0.3,0-0.5,0-0.8,0V7.7C55.7,3.4,52.2,0,48,0c-4.2,0-7.7,3.4-7.7,7.7v13.5c0,0,0,0.1,0,0.1
		C17,27.8,0,48.1,0,72.1c0,29.3,25.3,53,56.5,53h44.1l8.3,14.4c0.4,0.7,1.3,0.7,1.7,0l9.6-16.7C143.3,116.1,160,95.9,160,72.1z
		 M105.6,107.8H54.4c-18.7,0-33.9-16-33.9-35.7c0-19.7,15.2-35.7,33.9-35.7h51.3c18.7,0,33.9,16,33.9,35.7
		C139.5,91.8,124.3,107.8,105.6,107.8z"/>
	<path class="st0" d="M90.7,67.5c-0.2-0.3-0.6-0.6-0.9-0.7c-0.4-0.2-0.8-0.3-1.2-0.3H71.5c-0.4,0-0.8,0.1-1.2,0.3
		c-0.4,0.2-0.7,0.4-0.9,0.7c-0.2,0.3-0.4,0.7-0.5,1.1c-0.1,0.4-0.1,0.8,0.1,1.2c0.7,2.2,2.2,4.2,4.2,5.5c2,1.4,4.4,2.1,6.9,2.1
		s4.9-0.7,6.9-2.1c2-1.4,3.5-3.3,4.2-5.5c0.1-0.4,0.1-0.8,0.1-1.2C91.1,68.2,90.9,67.8,90.7,67.5z"/>
	<ellipse class="st0" cx="48.3" cy="63.9" rx="8" ry="8"/>
	<ellipse class="st0" cx="112" cy="63.9" rx="8" ry="8"/>
</g>
</svg>
