<?xml version="1.0" encoding="utf-8"?>
<!-- Generator: Adobe Illustrator 26.0.3, SVG Export Plug-In . SVG Version: 6.00 Build 0)  -->
<svg version="1.1" id="圖層_1" xmlns="http://www.w3.org/2000/svg" xmlns:xlink="http://www.w3.org/1999/xlink" x="0px" y="0px"
	 viewBox="0 0 672 141" style="enable-background:new 0 0 672 141;" xml:space="preserve">
<style type="text/css">
	.st0{fill:none;}
	.st1{fill:#41AFFF;}
</style>
<rect x="184" y="6" class="st0" width="488" height="129"/>
<g>
	<path class="st1" d="M210.1,50.7c2.6-1.6,5.6-2.5,8.6-2.8c3-0.3,6.1,0.2,9,1.3c2.4,0.9,4.6,2.1,6.6,3.6h0.1
		c1.5,1.2,3.4,1.7,5.3,1.5c1.9-0.2,3.6-1.1,4.9-2.6l4-4.8c-3-4.4-7.2-7.9-12.1-10.1c-5.5-2.5-11.4-3.7-17.4-3.6
		c-6.3-0.1-12.6,1.6-18,4.8c-5.3,3.2-9.6,7.7-12.5,13.2c-3,5.8-4.6,12.3-4.6,18.8s1.6,13,4.6,18.8c2.9,5.4,7.3,10,12.5,13.2
		c5.4,3.3,11.6,4.9,18,4.8c5.8,0,11.6-1.2,16.9-3.7c4.9-2.1,9.2-5.4,12.6-9.6l-3.8-4.6c-1.3-1.6-3.2-2.6-5.2-2.8s-4.1,0.3-5.7,1.5
		h-0.1c-1.9,1.4-4,2.5-6.2,3.3c-2.2,0.8-4.5,1.1-6.8,1.1c-3.7,0-7.4-1-10.5-3c-3.1-2-5.7-4.7-7.5-7.9c-1.9-3.5-2.8-7.4-2.8-11.3
		c-0.1-3.9,0.9-7.9,2.7-11.4C204.4,55.4,207,52.7,210.1,50.7z"/>
	<path class="st1" d="M313.7,36.4c-4.1-2.3-8.8-3.4-13.5-3.2c-3.8,0-7.6,0.8-11.1,2.4c-3.5,1.5-6.6,3.7-9.3,6.4
		c-0.8,0.8-1.5,1.6-2.2,2.5V6h-9.3c-1.9,0-3.7,0.7-5,2.1c-1.3,1.3-2.1,3.1-2.1,5v92.3h8.3c2.2,0,4.3-0.9,5.8-2.4
		c1.5-1.5,2.4-3.6,2.4-5.8V62.7c0-2,0.4-4.1,1.3-5.9c0.9-1.8,2-3.4,3.5-4.8c1.5-1.4,3.3-2.5,5.3-3.2c2.1-0.8,4.4-1.2,6.7-1.1
		c2.6-0.2,5.2,0.4,7.5,1.5c2.1,1.2,3.7,3,4.6,5.2c1.1,2.9,1.6,5.9,1.5,9v42h6.9c2.6,0,5-1,6.8-2.8c1.8-1.8,2.8-4.3,2.8-6.8V62.2
		c0.2-5.5-0.8-11-2.8-16.1C320.3,42,317.4,38.6,313.7,36.4z"/>
	<polygon class="st1" points="261.2,105.4 261.2,105.4 261.2,105.4 	"/>
	<path class="st1" d="M395.9,36.7c-1.2,1.2-2,2.9-2,4.7v3.3c-1.4-2.1-3.1-4-5-5.6c-2.3-1.9-5-3.4-7.9-4.4c-3.2-1.1-6.5-1.6-9.8-1.5
		c-5.9-0.1-11.7,1.6-16.7,4.7c-5,3.2-9.1,7.7-11.7,13c-2.8,5.9-4.3,12.4-4.3,18.9s1.5,13,4.3,18.9c2.6,5.3,6.6,9.8,11.4,13.2
		c4.7,3.2,10.2,4.9,15.9,4.8c3.3,0,6.6-0.5,9.7-1.6c2.9-1,5.7-2.5,8.2-4.2c2.2-1.5,4.1-3.4,5.7-5.5v10h9.1c2,0,4-0.8,5.5-2.3
		c1.4-1.4,2.3-3.4,2.3-5.4V34.7h-10C398.8,34.7,397.1,35.4,395.9,36.7z M384.9,89.3c-3.1,1.9-6.6,2.9-10.2,2.8
		c-3.6,0.1-7.1-0.9-10.1-2.8c-3-1.9-5.3-4.6-6.8-7.8c-1.7-3.6-2.5-7.6-2.4-11.6c-0.1-3.9,0.8-7.8,2.4-11.4c1.5-3.2,3.8-5.9,6.8-7.8
		c3-1.9,6.6-2.9,10.2-2.8c3.6-0.1,7.2,0.9,10.2,2.8c3,1.9,5.4,4.6,6.9,7.8c1.7,3.6,2.6,7.5,2.5,11.4c0.1,4-0.8,8-2.5,11.6
		C390.3,84.7,387.9,87.4,384.9,89.3z"/>
	<path class="st1" d="M454.1,16.6h-10c-1.7,0-3.4,0.7-4.7,1.9c-1.2,1.2-1.9,2.9-1.9,4.6v11.4h-14v15.3h14v55.5h10
		c0.9,0,1.7-0.2,2.5-0.5c0.8-0.3,1.5-0.8,2.1-1.4c0.6-0.6,1.1-1.3,1.4-2.1c0.3-0.8,0.5-1.6,0.5-2.5v-49h15.5V34.6h-15.5V16.6z"/>
	<path class="st1" d="M538,38.2c-4.8-3-10.3-4.6-15.9-4.7c-4.2-0.1-8.4,0.6-12.2,2.2c-3.4,1.4-6.6,3.4-9.2,6
		c-0.7,0.6-1.3,1.3-1.9,2.1l-0.2-9.1h-9.1c-1.9,0-3.7,0.8-5.1,2.1c-1.3,1.3-2.1,3.2-2.1,5.1V135l9.2,0c2,0,3.9-0.8,5.3-2.2
		c1.4-1.4,2.2-3.3,2.2-5.3V97.1c0.3,0.3,0.6,0.6,0.9,0.9c2.8,2.7,6.1,4.8,9.7,6.3c3.8,1.6,7.8,2.4,11.9,2.4
		c5.9,0.1,11.6-1.6,16.5-4.8c5-3.2,9-7.7,11.6-13c2.8-5.9,4.2-12.4,4.2-18.9c0-6.5-1.5-13-4.2-18.9C546.9,45.8,542.9,41.4,538,38.2z
		 M535.1,81.3c-1.5,3.2-3.9,5.9-6.9,7.8c-3,1.9-6.5,2.9-10.1,2.8c-3.6,0.1-7.2-0.9-10.3-2.8c-3-1.9-5.4-4.7-6.9-7.8
		c-1.7-3.6-2.6-7.5-2.6-11.4c0-3.9,0.9-7.8,2.6-11.4c1.6-3.2,4-5.8,6.9-7.7c3.1-1.9,6.7-2.8,10.3-2.8c3.6-0.1,7.2,0.9,10.2,2.8
		c3,1.9,5.3,4.6,6.9,7.7c1.6,3.6,2.4,7.5,2.4,11.4C537.6,73.9,536.8,77.8,535.1,81.3z"/>
	<path class="st1" d="M624,35.3c-0.9,0.4-1.8,0.9-2.5,1.7s-1.3,1.6-1.7,2.5c-0.4,0.9-0.6,1.9-0.6,2.9v2.3c-1.4-2.1-3.1-4-5-5.6
		c-2.3-1.9-5-3.4-7.9-4.4c-3.2-1.1-6.5-1.6-9.8-1.5c-5.9-0.1-11.7,1.6-16.7,4.7c-5,3.2-9.1,7.7-11.7,13c-2.8,5.9-4.3,12.4-4.3,18.9
		s1.5,13,4.3,18.9c2.6,5.3,6.6,9.8,11.5,13.2c4.7,3.2,10.2,4.9,15.9,4.8c3.3,0,6.5-0.5,9.6-1.6c2.9-1,5.7-2.5,8.2-4.2
		c2.2-1.5,4.1-3.4,5.7-5.5v10h9.2c2,0,4-0.8,5.4-2.2c1.4-1.4,2.2-3.4,2.2-5.4V34.7h-9C625.9,34.7,624.9,34.9,624,35.3z M610.3,89.3
		c-3.1,1.9-6.6,2.9-10.2,2.8h0c-3.6,0.1-7.1-0.9-10.1-2.8c-3-1.9-5.3-4.6-6.8-7.8c-1.7-3.6-2.5-7.6-2.5-11.6
		c-0.1-3.9,0.8-7.8,2.4-11.4c1.5-3.2,3.8-5.9,6.8-7.8c3-1.9,6.6-2.9,10.2-2.8c3.6-0.1,7.2,0.9,10.2,2.8c3,1.9,5.4,4.6,6.9,7.8
		c1.7,3.6,2.6,7.5,2.5,11.4c0.1,4-0.8,8-2.5,11.6C615.7,84.7,613.3,87.4,610.3,89.3z"/>
	<path class="st1" d="M663,6c-2,0-4,0.8-5.4,2.2c-1.4,1.4-2.2,3.4-2.2,5.4v91.8l9,0c2,0,4-0.8,5.4-2.2c1.4-1.4,2.2-3.4,2.2-5.4V6
		H663z"/>
	<path class="st1" d="M120,21.4c0-0.1,0-0.1,0-0.2V7.7c0-4.2-3.4-7.7-7.7-7.7c-4.2,0-7.7,3.4-7.7,7.7v11.4c-0.4,0-0.8,0-1.1,0h-47
		c-0.3,0-0.5,0-0.8,0V7.7C55.7,3.4,52.2,0,48,0c-4.2,0-7.7,3.4-7.7,7.7v13.5c0,0,0,0.1,0,0.1C17,27.8,0,48.1,0,72.1
		c0,29.3,25.3,53,56.5,53h44.1l8.3,14.4c0.4,0.7,1.3,0.7,1.7,0l9.6-16.7c23-6.7,39.7-26.8,39.7-50.7C160,48.2,143.1,28,120,21.4z
		 M105.6,107.8H54.4c-18.7,0-33.9-16-33.9-35.7c0-19.7,15.2-35.7,33.9-35.7h51.3c18.7,0,33.9,16,33.9,35.7
		C139.5,91.8,124.3,107.8,105.6,107.8z"/>
	<path class="st1" d="M90.7,67.5c-0.2-0.3-0.6-0.6-0.9-0.7c-0.4-0.2-0.8-0.3-1.2-0.3H71.5c-0.4,0-0.8,0.1-1.2,0.3
		c-0.4,0.2-0.7,0.4-0.9,0.7c-0.2,0.3-0.4,0.7-0.5,1.1c-0.1,0.4-0.1,0.8,0.1,1.2c0.7,2.2,2.2,4.2,4.2,5.5c2,1.4,4.4,2.1,6.9,2.1
		s4.9-0.7,6.9-2.1c2-1.4,3.5-3.3,4.2-5.5c0.1-0.4,0.1-0.8,0.1-1.2C91.1,68.2,90.9,67.8,90.7,67.5z"/>
	<ellipse class="st1" cx="48.3" cy="63.9" rx="8" ry="8"/>
	<ellipse class="st1" cx="112" cy="63.9" rx="8" ry="8"/>
</g>
</svg>
